<?xml version="1.0" encoding="UTF-8" standalone="no"?>
<svg
   xmlns:dc="http://purl.org/dc/elements/1.1/"
   xmlns:cc="http://creativecommons.org/ns#"
   xmlns:rdf="http://www.w3.org/1999/02/22-rdf-syntax-ns#"
   xmlns:svg="http://www.w3.org/2000/svg"
   xmlns="http://www.w3.org/2000/svg"
   xmlns:sodipodi="http://sodipodi.sourceforge.net/DTD/sodipodi-0.dtd"
   xmlns:inkscape="http://www.inkscape.org/namespaces/inkscape"
   version="1.1"
   width="240"
   height="240"
   viewBox="0 0 240 240"
   id="svg4"
   sodipodi:docname="minusTwo.svg"
   inkscape:version="0.92.3 (2405546, 2018-03-11)">
  <metadata
     id="metadata10">
    <rdf:RDF>
      <cc:Work
         rdf:about="">
        <dc:format>image/svg+xml</dc:format>
        <dc:type
           rdf:resource="http://purl.org/dc/dcmitype/StillImage" />
        <dc:title />
        <cc:license
           rdf:resource="" />
      </cc:Work>
    </rdf:RDF>
  </metadata>
  <defs
     id="defs8" />
  <sodipodi:namedview
     pagecolor="#ffffff"
     bordercolor="#666666"
     borderopacity="1"
     objecttolerance="10"
     gridtolerance="10"
     guidetolerance="10"
     inkscape:pageopacity="0"
     inkscape:pageshadow="2"
     inkscape:window-width="1920"
     inkscape:window-height="1014"
     id="namedview6"
     showgrid="false"
     inkscape:zoom="2"
     inkscape:cx="116.07776"
     inkscape:cy="63.034271"
     inkscape:window-x="0"
     inkscape:window-y="0"
     inkscape:window-maximized="1"
     inkscape:current-layer="svg4"
     showguides="false" />
  <path
     d="m 167.06004,177.55851 c 2.58808,-1.11171 3.4962,-5.5825 2.2981,-8.13173 -7.22512,-15.37304 -34.126,-20.70169 -46.5988,-20.62394 -12.65067,0.0789 -40.932287,5.72727 -47.748767,21.84881 -1.095985,2.59209 0.193165,6.96726 2.828427,7.95495 9.564089,3.5846 15.836561,-12.2679 26.71215,-15.0117 10.8756,-2.7438 25.66215,-4.2808 36.93445,0.52133 8.53784,3.63722 16.72562,17.24333 25.57444,13.44228 z M 73.75,105.5 C 83.276912,105.5 91,97.77691 91,88.25 91,78.723088 83.276912,71 73.75,71 64.223088,71 56.5,78.723088 56.5,88.25 c 0,9.52691 7.723088,17.25 17.25,17.25 m 92.5,0 c 9.52691,0 17.25,-7.72309 17.25,-17.25 C 183.5,78.723088 175.77691,71 166.25,71 156.72309,71 149,78.723088 149,88.25 c 0,9.52691 7.72309,17.25 17.25,17.25 M 120,225 C 69.189803,225 18,173.8102 18,123 18,72.189803 69.189803,20 120,20 c 50.8102,0 102,52.189803 102,103 0,50.8102 -51.1898,102 -102,102 M 120,8 C 56.405,8 5,59.75 5,123 5,186.51275 56.487254,238 120,238 183.51275,238 235,186.51275 235,123 235,59.487254 183.51275,8 120,8 Z"
     id="path2"
     inkscape:connector-curvature="0"
     style="fill:#ff5722;fill-opacity:1;stroke-width:11.5"
     sodipodi:nodetypes="aasaazsasccsssccssscssssssss" />
  <rect
     style="opacity:1;fill:#ff5722;fill-opacity:1"
     id="rect814"
     width="30"
     height="6"
     x="81.688896"
     y="38.126423"
     transform="rotate(15)" />
  <rect
     style="opacity:1;fill:#ff5722;fill-opacity:1"
     id="rect814-3"
     width="30"
     height="6"
     x="86.517433"
     y="130.66664"
     transform="rotate(-30)" />
</svg>
